<svg width="1920" height="980" viewBox="0 0 1920 980" fill="none" xmlns="http://www.w3.org/2000/svg">
<g clip-path="url(#clip0_201_30)">
<path d="M30.8934 782.653C29.3068 766.229 58.0331 756.799 69.5964 754.3C80.8089 751.73 92.4841 751.983 103.575 755.036C108.838 756.341 113.671 758.992 117.599 762.73C121.527 766.468 124.415 771.164 125.978 776.356C129.873 790.673 122.161 801.841 120.449 815.318C119.893 817.872 120.009 820.527 120.785 823.023C121.561 825.519 122.97 827.772 124.876 829.561C126.782 831.35 129.119 832.615 131.659 833.232C134.199 833.849 136.856 833.797 139.37 833.081C160.241 825.539 156.853 786.559 155.314 770.634C178.456 768.398 183.894 793.491 183.907 811.825C183.908 822.702 182.593 833.539 179.993 844.101C178.479 850.526 173.826 858.26 174.984 865.055C176.853 875.298 187.757 876.379 195.163 871.143C212.532 858.539 211.056 827.663 209.289 809.373C234.173 806.969 240.981 828.037 239.243 849.052C238.174 859.919 235.881 870.63 232.407 880.982C230.283 887.592 225.79 895.686 228.827 902.426C236.033 919.813 253.39 899.299 257.225 890.892C259.769 885.005 261.618 878.842 262.734 872.527C264.076 865.616 262.536 857.476 270.964 862.815C280.295 871.536 286.81 882.845 289.673 895.292C297.419 918.279 301.552 950.656 272.493 959.24C257.043 962.658 240.88 960.433 226.928 952.967C185.044 933.612 146.119 908.409 111.32 878.112C91.5043 862.195 73.0495 844.656 56.1471 825.674C45.9868 814.097 32.4559 798.828 30.8934 782.653Z" fill="#F8C867"/>
<path opacity="0.8" d="M1566.71 681.929C1577.47 684.195 1577.74 704.35 1577.02 712.204C1576.42 719.849 1573.93 727.226 1569.78 733.672C1567.9 736.76 1565.25 739.306 1562.09 741.059C1558.93 742.812 1555.36 743.713 1551.75 743.672C1541.86 743.294 1536.3 736.161 1528.07 732.384C1526.55 731.521 1524.84 731.066 1523.1 731.061C1521.35 731.057 1519.64 731.504 1518.12 732.36C1516.6 733.215 1515.33 734.45 1514.43 735.943C1513.53 737.436 1513.04 739.136 1512.99 740.878C1513.63 755.659 1539.1 761.277 1549.54 763.475C1546.34 778.642 1529.3 777.097 1517.63 773.449C1510.71 771.28 1504.08 768.282 1497.88 764.522C1494.09 762.277 1490.1 757.775 1485.55 757.157C1478.66 756.303 1475.8 763.024 1477.65 768.779C1482.21 782.342 1502.14 787.561 1514.13 790.084C1510.7 806.394 1495.94 806.522 1482.91 801.226C1476.21 798.379 1469.86 794.784 1463.97 790.509C1460.18 787.84 1455.93 783.367 1451.04 783.955C1438.54 785.071 1448.13 800.204 1452.71 804.32C1455.95 807.113 1459.5 809.518 1463.3 811.488C1467.42 813.72 1472.91 814.363 1467.83 818.66C1460.42 822.857 1451.93 824.746 1443.44 824.085C1427.27 824.428 1405.85 820.599 1406.19 800.402C1407.1 789.892 1411.73 780.054 1419.27 772.668C1439.93 749.884 1463.73 730.149 1489.94 714.054C1504.02 704.622 1518.86 696.381 1534.3 689.414C1543.69 685.26 1556.1 679.697 1566.71 681.929Z" fill="#604239"/>
<path d="M1730.85 321.415C1725.55 319.923 1726.1 309.859 1726.72 305.965C1727.27 302.171 1728.76 298.575 1731.05 295.499C1732.1 294.022 1733.5 292.841 1735.14 292.073C1736.78 291.305 1738.58 290.975 1740.39 291.117C1745.3 291.638 1747.84 295.384 1751.82 297.545C1752.55 298.026 1753.38 298.311 1754.25 298.372C1755.12 298.433 1755.99 298.267 1756.78 297.892C1757.57 297.516 1758.24 296.943 1758.74 296.229C1759.24 295.514 1759.54 294.682 1759.63 293.815C1759.81 286.42 1747.29 282.76 1742.15 281.313C1744.26 273.853 1752.71 275.198 1758.41 277.41C1761.79 278.725 1764.99 280.444 1767.96 282.528C1769.77 283.775 1771.61 286.156 1773.86 286.617C1777.27 287.275 1778.92 284.018 1778.19 281.085C1776.38 274.166 1766.61 270.891 1760.71 269.229C1762.98 261.209 1770.34 261.641 1776.66 264.721C1779.91 266.367 1782.96 268.374 1785.75 270.705C1787.55 272.164 1789.52 274.538 1791.98 274.409C1798.25 274.273 1793.98 266.401 1791.83 264.194C1790.31 262.692 1788.62 261.372 1786.79 260.262C1784.81 259.01 1782.09 258.504 1784.77 256.532C1788.61 254.687 1792.91 254.03 1797.12 254.646C1805.2 255.019 1815.76 257.649 1814.91 267.714C1814.1 272.926 1811.46 277.678 1807.45 281.109C1796.38 291.78 1783.84 300.825 1770.22 307.972C1762.88 312.204 1755.2 315.816 1747.26 318.772C1742.44 320.528 1736.06 322.886 1730.85 321.415Z" fill="#F8C867"/>
<path opacity="0.75" d="M1373.68 346.115C1374.43 357.098 1355.1 362.857 1347.34 364.31C1339.81 365.817 1332.03 365.433 1324.69 363.191C1321.21 362.224 1318.03 360.366 1315.48 357.8C1312.93 355.235 1311.09 352.049 1310.14 348.558C1307.81 338.937 1313.16 331.631 1314.55 322.674C1314.97 320.98 1314.94 319.208 1314.47 317.528C1314 315.849 1313.1 314.321 1311.86 313.092C1310.62 311.864 1309.09 310.977 1307.41 310.519C1305.72 310.06 1303.95 310.046 1302.26 310.477C1288.2 315.121 1289.74 341.182 1290.47 351.832C1275 352.896 1271.83 336.059 1272.16 323.831C1272.36 316.576 1273.44 309.372 1275.37 302.376C1276.5 298.119 1279.74 293.047 1279.1 288.493C1278.04 281.627 1270.79 280.704 1265.75 284.06C1253.93 292.145 1254.35 312.766 1255.19 324.997C1238.55 326.14 1234.4 311.963 1235.94 297.979C1236.86 290.751 1238.58 283.65 1241.09 276.809C1242.63 272.44 1245.78 267.124 1243.88 262.573C1239.39 250.843 1227.44 264.205 1224.72 269.741C1222.92 273.62 1221.57 277.697 1220.71 281.888C1219.69 286.473 1220.56 291.93 1215.04 288.213C1208.98 282.224 1204.84 274.562 1203.16 266.207C1198.42 250.732 1196.26 229.061 1215.8 223.873C1226.17 221.879 1236.91 223.662 1246.08 228.899C1273.65 242.582 1299.15 260.111 1321.8 280.961C1334.72 291.943 1346.71 303.983 1357.63 316.955C1364.19 324.864 1372.93 335.298 1373.68 346.115Z" fill="#604239"/>
<path d="M822.681 188.344C811.681 188.345 807.263 168.678 806.346 160.845C805.359 153.24 806.275 145.509 809.011 138.345C810.214 134.936 812.283 131.899 815.015 129.531C817.747 127.164 821.048 125.549 824.594 124.844C834.344 123.176 841.261 129.009 850.094 131.009C851.753 131.541 853.522 131.634 855.229 131.28C856.935 130.925 858.52 130.134 859.829 128.984C861.139 127.834 862.127 126.364 862.7 124.718C863.272 123.072 863.407 121.305 863.093 119.591C859.426 105.258 833.342 105.01 822.676 105.011C822.675 89.5105 839.675 87.5094 851.841 88.6752C859.059 89.3719 866.166 90.9384 873.008 93.3405C877.175 94.7569 882.009 98.3399 886.592 98.0063C893.509 97.4225 894.925 90.2557 891.924 85.0059C884.674 72.6731 864.09 71.6744 851.84 71.6752C851.839 55.0086 866.256 51.8409 880.089 54.34C887.232 55.7457 894.193 57.9537 900.84 60.922C905.09 62.755 910.173 66.2547 914.84 64.6711C926.84 61.0036 914.339 48.1711 909.005 45.0881C905.262 43.0228 901.29 41.401 897.171 40.2556C892.671 38.9225 887.171 39.4229 891.254 34.1726C897.639 28.539 905.561 24.9403 914.004 23.8378C929.753 20.1701 951.503 19.5019 955.338 39.335C956.616 49.8062 954.104 60.389 948.257 69.1688C932.73 95.7227 913.512 119.938 891.178 141.089C879.347 153.219 866.526 164.342 852.847 174.342C844.514 180.342 833.515 188.343 822.681 188.344Z" fill="#F8C867"/>
<path opacity="0.66" d="M782.367 546.272C763.268 523.773 742.527 514.407 725.755 514.331C717.377 514.294 709.9 516.591 704.468 521.202C700.866 524.26 698.316 528.442 697.27 533.101C706.029 534.224 713.392 537.451 718.319 543.255C722.549 548.238 723.091 555.502 723.39 562.807C732.433 564.755 740.593 569.6 746.632 576.607C752.61 583.65 755.988 592.555 756.476 601.782C763.628 603.253 770.715 604.976 774.945 609.96C779.88 615.773 781.86 623.553 781.547 632.378C786.324 632.094 790.862 630.275 794.464 627.217C799.896 622.606 803.369 615.591 804.693 607.319C807.341 590.756 801.459 568.761 782.367 546.272ZM708.789 551.344C706.095 548.171 701.542 545.936 693.763 545.31L693.103 545.247L666.088 596.382C665.505 597.486 665.266 598.739 665.402 599.979C665.538 601.22 666.042 602.392 666.849 603.344L707.297 650.991C708.105 651.945 709.18 652.636 710.384 652.973C711.588 653.31 712.865 653.278 714.051 652.882L768.905 634.502L768.939 633.866C769.575 626.079 768.11 621.223 765.416 618.05C762.722 614.877 758.169 612.642 750.39 612.015C748.738 611.88 747.208 611.094 746.135 609.831C745.062 608.567 744.536 606.93 744.67 605.278C745.231 598.522 742.272 590.786 737.103 584.697C731.933 578.608 724.771 574.44 718.031 573.898C717.212 573.832 716.414 573.605 715.682 573.23C714.95 572.855 714.3 572.339 713.768 571.713C713.236 571.086 712.833 570.36 712.582 569.578C712.33 568.795 712.236 567.97 712.304 567.151C712.957 559.382 711.483 554.517 708.789 551.344Z" fill="#F8C867"/>
<path d="M1083.02 778.172C1045.47 801.624 1027.06 830.368 1023.3 855.244C1021.42 867.669 1023.21 879.267 1028.87 888.332C1032.62 894.343 1038.27 899.037 1044.96 901.603C1048.53 888.848 1054.92 878.622 1064.61 872.573C1072.93 867.378 1083.82 868.154 1094.73 869.3C1099.59 856.303 1108.56 845.246 1120.27 837.808C1132.02 830.467 1145.97 827.39 1159.77 828.674C1163.51 818.38 1167.61 808.237 1175.93 803.042C1185.63 796.983 1197.61 795.736 1210.64 798.121C1211.25 790.97 1209.54 783.839 1205.79 777.827C1200.12 768.763 1190.47 762.082 1178.48 758.318C1154.47 750.785 1120.55 754.73 1083.02 778.172ZM1074.54 888.476C1069.25 891.783 1064.94 898.055 1062.32 909.464L1062.08 910.43L1132.09 961.648C1133.61 962.753 1135.41 963.38 1137.28 963.449C1139.16 963.517 1141 963.024 1142.59 962.032L1222.11 912.368C1223.7 911.377 1224.96 909.931 1225.72 908.218C1226.48 906.504 1226.71 904.601 1226.38 902.755L1211.04 817.346L1210.1 817.157C1198.68 814.518 1191.16 815.637 1185.86 818.945C1180.57 822.253 1176.26 828.524 1173.64 839.933C1173.08 842.355 1171.58 844.456 1169.47 845.773C1167.36 847.09 1164.82 847.515 1162.39 846.956C1152.49 844.654 1140.36 847.363 1130.2 853.71C1120.04 860.058 1112.3 869.78 1110.03 879.665C1109.75 880.867 1109.24 882.003 1108.52 883.007C1107.81 884.011 1106.9 884.864 1105.85 885.518C1104.81 886.171 1103.64 886.611 1102.43 886.814C1101.21 887.016 1099.97 886.977 1098.77 886.698C1087.38 884.039 1079.84 885.168 1074.54 888.476Z" fill="#F8C867"/>
<path opacity="0.75" d="M1847.53 521.341C1828.47 510.091 1811.47 508.55 1799.57 512.617C1793.62 514.65 1788.89 518.115 1786.17 522.717C1784.37 525.769 1783.59 529.358 1784 532.917C1790.48 531.561 1796.49 532.038 1801.41 534.94C1805.63 537.432 1807.8 542.446 1809.8 547.549C1816.69 546.708 1823.66 548.136 1829.66 551.618C1835.63 555.139 1840.21 560.619 1842.83 567.038C1848.25 566.323 1853.7 565.803 1857.92 568.295C1862.85 571.202 1866.16 576.228 1868.11 582.558C1871.42 581.184 1874.19 578.779 1875.99 575.727C1878.71 571.125 1879.45 565.301 1878.35 559.114C1876.16 546.727 1866.59 532.586 1847.53 521.341ZM1796.64 543.014C1793.95 541.427 1790.18 540.963 1784.51 542.43L1784.03 542.548L1777.45 585.42C1777.31 586.346 1777.45 587.292 1777.85 588.138C1778.25 588.984 1778.89 589.69 1779.7 590.166L1820.07 613.991C1820.87 614.469 1821.81 614.694 1822.74 614.637C1823.68 614.58 1824.58 614.244 1825.32 613.672L1859.67 587.17L1859.54 586.711C1858.08 581.036 1855.85 577.956 1853.16 576.369C1850.47 574.782 1846.69 574.318 1841.03 575.785C1839.82 576.095 1838.55 575.914 1837.48 575.282C1836.41 574.651 1835.63 573.62 1835.32 572.416C1834.06 567.491 1830.06 562.736 1824.9 559.691C1819.74 556.647 1813.64 555.453 1808.73 556.725C1808.14 556.88 1807.51 556.915 1806.9 556.829C1806.29 556.743 1805.71 556.537 1805.17 556.224C1804.64 555.911 1804.18 555.496 1803.81 555.003C1803.44 554.51 1803.17 553.949 1803.02 553.351C1801.57 547.686 1799.33 544.601 1796.64 543.014Z" fill="#F8C867"/>
<path opacity="0.5" d="M1782.03 41.1618C1771.78 45.3339 1766.02 51.6272 1764.03 57.5941C1763.04 60.5744 1762.98 63.5074 1763.99 65.9821C1764.65 67.6232 1765.85 69.021 1767.38 69.9388C1768.81 66.9497 1770.82 64.704 1773.46 63.6278C1775.73 62.7036 1778.39 63.3605 1781.02 64.1089C1782.78 61.1151 1785.46 58.7747 1788.66 57.443C1791.87 56.1371 1795.44 55.9755 1798.78 56.8815C1800.14 54.5056 1801.58 52.1823 1803.86 51.2582C1806.5 50.1802 1809.51 50.385 1812.61 51.5292C1813.07 49.7942 1812.96 47.9643 1812.29 46.3232C1811.28 43.8484 1809.19 41.7902 1806.4 40.3507C1800.8 37.4693 1792.28 36.9914 1782.03 41.1618ZM1775.23 67.9695C1773.79 68.5579 1772.46 69.9186 1771.32 72.6169L1771.22 72.8447L1786.28 88.4528C1786.61 88.7895 1787.02 89.0213 1787.48 89.1181C1787.94 89.215 1788.42 89.1725 1788.85 88.9961L1810.56 80.1606C1810.99 79.9847 1811.36 79.6824 1811.63 79.2929C1811.89 78.9033 1812.02 78.4445 1812.02 77.9757L1811.89 56.2819L1811.67 56.1953C1808.97 55.0574 1807.07 55.0114 1805.62 55.5998C1804.18 56.1883 1802.85 57.549 1801.71 60.2473C1801.47 60.8199 1801.01 61.2732 1800.44 61.5075C1799.86 61.7418 1799.22 61.7379 1798.64 61.4966C1796.3 60.5062 1793.2 60.6555 1790.43 61.7846C1787.65 62.9138 1785.33 64.9778 1784.35 67.3157C1784.23 67.5999 1784.05 67.8578 1783.83 68.0746C1783.62 68.2913 1783.36 68.4628 1783.07 68.579C1782.78 68.6952 1782.48 68.7539 1782.17 68.7518C1781.86 68.7497 1781.56 68.6868 1781.27 68.5668C1778.58 67.4253 1776.68 67.381 1775.23 67.9695Z" fill="#604239"/>
<path opacity="0.66" d="M103.871 369.583C88.0629 354.09 71.9303 348.518 59.3984 349.612C53.1391 350.159 47.7121 352.388 43.9718 356.205C41.4914 358.736 39.8738 362.034 39.4124 365.585C46.031 365.823 51.7516 367.728 55.8292 371.724C59.3309 375.156 60.2338 380.543 60.9581 385.979C67.8455 386.813 74.2726 389.872 79.2637 394.691C84.2117 399.54 87.3458 405.959 88.3431 412.817C93.7854 413.426 99.1964 414.226 102.698 417.658C106.783 421.661 108.795 427.335 109.167 433.948C112.715 433.408 115.98 431.738 118.46 429.207C122.2 425.39 124.313 419.913 124.734 413.644C125.575 401.093 119.673 385.069 103.871 369.583ZM49.2672 378.42C47.0375 376.235 43.4837 374.878 37.6306 374.944L37.1334 374.942L20.466 414.986C20.1065 415.851 20.014 416.803 20.2005 417.72C20.3869 418.638 20.8438 419.478 21.5122 420.134L54.9901 452.944C55.6587 453.601 56.5091 454.043 57.4315 454.212C58.3538 454.381 59.3057 454.27 60.1641 453.892L99.8707 436.402L99.8526 435.924C99.7936 430.065 98.3659 426.539 96.1362 424.354C93.9066 422.169 90.3528 420.812 84.4996 420.878C83.2567 420.89 82.0598 420.408 81.1721 419.538C80.2844 418.668 79.7786 417.481 79.7659 416.238C79.7213 411.154 76.9802 405.58 72.7017 401.387C68.4232 397.194 62.7883 394.572 57.7173 394.63C57.1008 394.637 56.4889 394.522 55.9168 394.292C55.3447 394.062 54.8235 393.722 54.3832 393.29C53.9428 392.859 53.5919 392.345 53.3506 391.777C53.1093 391.21 52.9823 390.6 52.9768 389.984C52.9312 384.137 51.4968 380.605 49.2672 378.42Z" fill="#604239"/>
<path opacity="0.66" d="M524.4 33.2757C510.604 38.5131 502.723 46.7199 499.882 54.6105C498.463 58.5518 498.296 62.4595 499.56 65.7901C500.399 67.9988 501.943 69.8996 503.963 71.1715C505.957 67.2322 508.709 64.3023 512.267 62.9513C515.323 61.7912 518.836 62.7505 522.329 63.8314C524.759 59.8961 528.407 56.8612 532.718 55.1873C537.036 53.5479 541.797 53.4452 546.227 54.7585C548.116 51.6346 550.113 48.5834 553.169 47.4232C556.733 46.07 560.73 46.4378 564.836 48.0612C565.501 45.763 565.403 43.3201 564.564 41.1114C563.3 37.7809 560.575 34.9712 556.899 32.9643C549.537 28.9468 538.189 28.0405 524.4 33.2757ZM514.486 68.7944C512.54 69.5331 510.726 71.3049 509.129 74.8658L508.99 75.1663L528.567 96.4469C528.99 96.9061 529.54 97.2282 530.148 97.3717C530.755 97.5153 531.391 97.4737 531.975 97.2523L561.19 86.1608C561.775 85.9399 562.28 85.5487 562.641 85.0378C563.001 84.5268 563.199 83.9196 563.211 83.2945L563.723 54.3735L563.429 54.2511C559.866 52.6489 557.333 52.5276 555.387 53.2663C553.442 54.005 551.627 55.7768 550.031 59.3377C549.691 60.0934 549.065 60.6831 548.29 60.9772C547.516 61.2713 546.656 61.2457 545.9 60.906C542.81 59.5119 538.67 59.6129 534.937 61.0304C531.203 62.4479 528.041 65.1256 526.659 68.2109C526.491 68.586 526.25 68.9243 525.951 69.2063C525.652 69.4883 525.3 69.7086 524.916 69.8545C524.532 70.0004 524.123 70.069 523.712 70.0565C523.301 70.044 522.896 69.9505 522.522 69.7815C518.97 68.1749 516.432 68.0557 514.486 68.7944Z" fill="#604239"/>
</g>
<defs>
<clipPath id="clip0_201_30">
<rect width="1920" height="980" fill="white"/>
</clipPath>
</defs>
</svg>
