<svg width="116" height="116" viewBox="0 0 116 116" fill="none" xmlns="http://www.w3.org/2000/svg">
<path d="M40 70C40 79.942 56.116 88 76 88C95.884 88 112 79.942 112 70C112 60.058 95.884 52 76 52C56.116 52 40 60.058 40 70Z" stroke="#00064D" stroke-width="8" stroke-linecap="round" stroke-linejoin="round"/>
<path d="M40 70V94C40 103.936 56.116 112 76 112C95.884 112 112 103.936 112 94V70M4 22C4 28.432 10.864 34.372 22 37.588C33.136 40.804 46.864 40.804 58 37.588C69.136 34.372 76 28.432 76 22C76 15.568 69.136 9.628 58 6.412C46.864 3.196 33.136 3.196 22 6.412C10.864 9.628 4 15.568 4 22Z" stroke="#00064D" stroke-width="8" stroke-linecap="round" stroke-linejoin="round"/>
<path d="M4 22V82C4 87.328 8.632 90.7 16 94" stroke="#00064D" stroke-width="8" stroke-linecap="round" stroke-linejoin="round"/>
<path d="M4 52C4 57.328 8.632 60.7 16 64" stroke="#00064D" stroke-width="8" stroke-linecap="round" stroke-linejoin="round"/>
</svg>
