<svg width="1920" height="980" viewBox="0 0 1920 980" fill="none" xmlns="http://www.w3.org/2000/svg">
<g clip-path="url(#clip0_170_24)">
<rect width="1920" height="980" fill="white"/>
<rect y="1.52588e-05" width="1920" height="980" fill="url(#paint0_radial_170_24)"/>
<path d="M30.8939 822.653C29.3073 806.229 58.0336 796.799 69.5969 794.3C80.8094 791.73 92.4845 791.983 103.575 795.036C108.838 796.341 113.671 798.992 117.599 802.73C121.527 806.468 124.415 811.164 125.979 816.356C129.874 830.673 122.162 841.841 120.45 855.318C119.894 857.872 120.01 860.527 120.785 863.023C121.561 865.519 122.971 867.772 124.877 869.561C126.782 871.35 129.119 872.615 131.659 873.232C134.2 873.849 136.856 873.797 139.37 873.081C160.242 865.539 156.853 826.559 155.315 810.634C178.457 808.398 183.895 833.491 183.908 851.825C183.908 862.702 182.594 873.539 179.993 884.101C178.479 890.526 173.826 898.26 174.985 905.055C176.853 915.298 187.758 916.379 195.164 911.143C212.532 898.539 211.057 867.663 209.29 849.373C234.174 846.969 240.981 868.037 239.244 889.052C238.175 899.919 235.881 910.63 232.407 920.982C230.283 927.592 225.791 935.686 228.828 942.426C236.033 959.813 253.391 939.299 257.225 930.892C259.769 925.005 261.618 918.842 262.735 912.527C264.077 905.616 262.537 897.476 270.964 902.815C280.296 911.536 286.811 922.845 289.674 935.292C297.42 958.279 301.552 990.656 272.493 999.24C257.043 1002.66 240.88 1000.43 226.929 992.967C185.044 973.612 146.12 948.409 111.32 918.112C91.5047 902.195 73.05 884.656 56.1475 865.674C45.9873 854.097 32.4564 838.828 30.8939 822.653Z" fill="#F7F7F7"/>
<path d="M1566.71 681.929C1577.47 684.195 1577.74 704.35 1577.02 712.204C1576.42 719.849 1573.93 727.226 1569.78 733.672C1567.9 736.76 1565.25 739.306 1562.09 741.059C1558.93 742.812 1555.36 743.713 1551.75 743.672C1541.86 743.294 1536.3 736.161 1528.07 732.384C1526.55 731.521 1524.84 731.066 1523.1 731.061C1521.36 731.057 1519.64 731.504 1518.12 732.36C1516.6 733.215 1515.33 734.45 1514.43 735.943C1513.54 737.436 1513.04 739.136 1512.99 740.878C1513.63 755.659 1539.1 761.277 1549.54 763.475C1546.35 778.642 1529.3 777.097 1517.63 773.449C1510.71 771.28 1504.08 768.282 1497.88 764.522C1494.1 762.277 1490.1 757.775 1485.55 757.157C1478.66 756.303 1475.8 763.024 1477.65 768.779C1482.21 782.342 1502.14 787.561 1514.13 790.084C1510.7 806.394 1495.94 806.522 1482.92 801.226C1476.22 798.379 1469.86 794.784 1463.97 790.509C1460.19 787.84 1455.93 783.367 1451.04 783.955C1438.54 785.071 1448.13 800.204 1452.71 804.32C1455.95 807.113 1459.5 809.518 1463.3 811.488C1467.43 813.72 1472.91 814.363 1467.83 818.66C1460.43 822.857 1451.93 824.746 1443.44 824.085C1427.28 824.428 1405.85 820.599 1406.19 800.402C1407.1 789.892 1411.74 780.054 1419.27 772.668C1439.93 749.884 1463.73 730.149 1489.94 714.054C1504.02 704.622 1518.86 696.381 1534.3 689.414C1543.69 685.26 1556.11 679.697 1566.71 681.929Z" fill="#F7F7F7"/>
<path d="M1730.85 321.415C1725.55 319.923 1726.1 309.859 1726.72 305.965C1727.28 302.171 1728.77 298.575 1731.06 295.499C1732.1 294.022 1733.51 292.841 1735.14 292.073C1736.78 291.305 1738.58 290.975 1740.39 291.117C1745.31 291.638 1747.84 295.384 1751.82 297.545C1752.55 298.026 1753.39 298.311 1754.26 298.372C1755.12 298.433 1755.99 298.267 1756.78 297.892C1757.57 297.516 1758.24 296.943 1758.74 296.228C1759.24 295.514 1759.55 294.682 1759.63 293.815C1759.81 286.42 1747.29 282.76 1742.16 281.313C1744.26 273.853 1752.71 275.198 1758.41 277.41C1761.79 278.725 1764.99 280.444 1767.96 282.528C1769.77 283.775 1771.61 286.156 1773.86 286.617C1777.27 287.275 1778.93 284.018 1778.2 281.085C1776.38 274.166 1766.61 270.891 1760.71 269.229C1762.98 261.209 1770.34 261.641 1776.66 264.721C1779.91 266.367 1782.96 268.374 1785.75 270.705C1787.55 272.164 1789.52 274.538 1791.98 274.409C1798.25 274.273 1793.98 266.401 1791.83 264.194C1790.31 262.692 1788.62 261.372 1786.79 260.262C1784.81 259.01 1782.09 258.504 1784.77 256.532C1788.61 254.687 1792.91 254.03 1797.12 254.646C1805.2 255.019 1815.76 257.649 1814.91 267.714C1814.1 272.926 1811.46 277.678 1807.45 281.109C1796.38 291.78 1783.84 300.825 1770.22 307.972C1762.88 312.204 1755.2 315.816 1747.26 318.772C1742.44 320.528 1736.06 322.885 1730.85 321.415Z" fill="#F7F7F7"/>
<path d="M1255.5 188.641C1255.8 193.031 1248.08 195.333 1244.98 195.913C1241.97 196.516 1238.86 196.362 1235.92 195.466C1234.53 195.08 1233.26 194.337 1232.24 193.312C1231.22 192.286 1230.49 191.013 1230.11 189.618C1229.18 185.773 1231.32 182.852 1231.87 179.273C1232.04 178.596 1232.03 177.887 1231.84 177.216C1231.65 176.545 1231.29 175.934 1230.8 175.443C1230.3 174.952 1229.69 174.598 1229.02 174.415C1228.34 174.231 1227.63 174.226 1226.96 174.398C1221.34 176.254 1221.95 186.67 1222.25 190.926C1216.06 191.351 1214.8 184.622 1214.93 179.735C1215.01 176.836 1215.44 173.956 1216.21 171.16C1216.66 169.459 1217.96 167.432 1217.7 165.612C1217.28 162.868 1214.38 162.499 1212.37 163.84C1207.64 167.071 1207.81 175.313 1208.15 180.201C1201.49 180.658 1199.84 174.992 1200.45 169.403C1200.82 166.514 1201.51 163.676 1202.51 160.942C1203.13 159.196 1204.38 157.071 1203.62 155.252C1201.83 150.564 1197.05 155.904 1195.97 158.117C1195.25 159.667 1194.71 161.297 1194.37 162.972C1193.96 164.804 1194.31 166.985 1192.1 165.5C1189.68 163.106 1188.02 160.044 1187.35 156.704C1185.46 150.52 1184.6 141.859 1192.4 139.785C1196.55 138.988 1200.84 139.701 1204.5 141.794C1215.53 147.262 1225.72 154.268 1234.77 162.601C1239.93 166.99 1244.72 171.802 1249.09 176.987C1251.71 180.148 1255.21 184.318 1255.5 188.641Z" fill="#F7F7F7"/>
<path d="M822.68 108.344C811.68 108.345 807.262 88.6782 806.345 80.8449C805.357 73.2399 806.273 65.5087 809.01 58.3447C810.213 54.9359 812.282 51.8986 815.014 49.5315C817.746 47.1643 821.047 45.5488 824.592 44.8437C834.342 43.1764 841.259 49.0093 850.093 51.0087C851.752 51.5411 853.521 51.6345 855.227 51.2795C856.933 50.9246 858.518 50.1336 859.828 48.9835C861.137 47.8335 862.126 46.3638 862.698 44.7177C863.27 43.0716 863.406 41.3053 863.092 39.5912C859.424 25.2581 833.341 25.0098 822.674 25.0105C822.673 9.51051 839.673 7.50938 851.84 8.67524C859.058 9.37193 866.165 10.9384 873.007 13.3405C877.174 14.7569 882.007 18.3399 886.59 18.0063C893.507 17.4225 894.923 10.2557 891.923 5.00591C884.672 -7.32694 864.089 -8.32557 851.839 -8.32476C851.838 -24.9914 866.254 -28.1591 880.088 -25.66C887.23 -24.2543 894.191 -22.0463 900.838 -19.078C905.088 -17.245 910.172 -13.7453 914.838 -15.3289C926.838 -18.9964 914.337 -31.8289 909.004 -34.9119C905.26 -36.9772 901.289 -38.599 897.17 -39.7444C892.67 -41.0775 887.17 -40.5771 891.253 -45.8274C897.638 -51.461 905.559 -55.0597 914.002 -56.1622C929.752 -59.8299 951.502 -60.498 955.337 -40.665C956.615 -30.1938 954.103 -19.611 948.255 -10.8312C932.728 15.7227 913.511 39.9378 891.177 61.0893C879.346 73.219 866.524 84.3416 852.846 94.3418C844.513 100.342 833.513 108.343 822.68 108.344Z" fill="#F7F7F7"/>
<path d="M713.785 527.83C685.977 537.715 669.868 553.79 663.853 569.447C660.849 577.267 660.347 585.074 662.734 591.787C664.316 596.239 667.323 600.106 671.309 602.735C675.464 594.943 681.091 589.202 688.263 586.652C694.423 584.462 701.407 586.53 708.344 588.839C713.37 581.074 720.793 575.161 729.486 571.997C738.19 568.903 747.714 568.9 756.515 571.714C760.426 565.548 764.549 559.532 770.709 557.342C777.893 554.788 785.87 555.694 794.011 559.114C795.438 554.547 795.345 549.659 793.763 545.207C791.376 538.493 786.048 532.759 778.781 528.59C764.233 520.243 741.58 517.949 713.785 527.83ZM692.45 598.429C688.528 599.824 684.825 603.289 681.482 610.342L681.189 610.937L719.43 654.321C720.256 655.257 721.343 655.925 722.551 656.237C723.76 656.55 725.034 656.494 726.21 656.076L785.1 635.141C786.278 634.725 787.305 633.964 788.047 632.957C788.789 631.951 789.212 630.745 789.262 629.496L791.516 571.689L790.934 571.432C783.877 568.076 778.818 567.726 774.896 569.12C770.974 570.515 767.27 573.98 763.927 581.032C763.215 582.529 761.938 583.682 760.377 584.237C758.815 584.792 757.097 584.704 755.6 583.993C749.481 581.074 741.199 581.099 733.673 583.775C726.147 586.45 719.711 591.67 716.815 597.781C716.463 598.523 715.968 599.19 715.358 599.741C714.748 600.292 714.036 600.718 713.261 600.993C712.487 601.268 711.665 601.388 710.844 601.346C710.023 601.303 709.219 601.099 708.477 600.745C701.444 597.381 696.372 597.035 692.45 598.429Z" fill="#F7F7F7"/>
<path d="M1233.02 878.172C1195.47 901.624 1177.06 930.368 1173.3 955.244C1171.42 967.669 1173.21 979.267 1178.87 988.332C1182.62 994.343 1188.27 999.037 1194.96 1001.6C1198.53 988.848 1204.92 978.622 1214.61 972.573C1222.93 967.378 1233.82 968.154 1244.73 969.3C1249.59 956.303 1258.56 945.246 1270.27 937.808C1282.02 930.467 1295.97 927.39 1309.77 928.674C1313.51 918.38 1317.61 908.237 1325.93 903.042C1335.63 896.983 1347.61 895.736 1360.64 898.121C1361.25 890.97 1359.54 883.839 1355.79 877.827C1350.12 868.763 1340.47 862.082 1328.48 858.318C1304.47 850.785 1270.55 854.73 1233.02 878.172ZM1224.54 988.476C1219.25 991.783 1214.94 998.055 1212.32 1009.46L1212.08 1010.43L1282.1 1061.65C1283.61 1062.75 1285.41 1063.38 1287.29 1063.45C1289.16 1063.52 1291.01 1063.02 1292.59 1062.03L1372.11 1012.37C1373.7 1011.38 1374.96 1009.93 1375.72 1008.22C1376.48 1006.5 1376.71 1004.6 1376.38 1002.76L1361.04 917.346L1360.1 917.157C1348.68 914.518 1341.16 915.637 1335.86 918.945C1330.57 922.253 1326.26 928.524 1323.64 939.933C1323.08 942.355 1321.58 944.456 1319.47 945.773C1317.36 947.09 1314.82 947.515 1312.39 946.956C1302.49 944.654 1290.36 947.363 1280.2 953.71C1270.04 960.058 1262.3 969.78 1260.03 979.665C1259.75 980.867 1259.24 982.003 1258.52 983.007C1257.81 984.011 1256.9 984.864 1255.86 985.518C1254.81 986.171 1253.64 986.611 1252.43 986.814C1251.21 987.016 1249.97 986.977 1248.77 986.698C1237.38 984.039 1229.84 985.168 1224.54 988.476Z" fill="#F7F7F7"/>
<path d="M1917.53 521.341C1898.47 510.091 1881.47 508.55 1869.57 512.617C1863.62 514.65 1858.89 518.115 1856.17 522.717C1854.37 525.769 1853.59 529.358 1854 532.917C1860.48 531.561 1866.49 532.038 1871.41 534.94C1875.63 537.432 1877.8 542.446 1879.8 547.549C1886.69 546.708 1893.66 548.136 1899.67 551.618C1905.63 555.139 1910.21 560.619 1912.83 567.038C1918.26 566.323 1923.7 565.803 1927.92 568.295C1932.85 571.202 1936.16 576.228 1938.11 582.558C1941.42 581.184 1944.19 578.779 1945.99 575.727C1948.71 571.125 1949.45 565.301 1948.35 559.114C1946.16 546.727 1936.59 532.586 1917.53 521.341ZM1866.64 543.014C1863.95 541.427 1860.18 540.963 1854.51 542.43L1854.03 542.548L1847.45 585.42C1847.31 586.346 1847.45 587.292 1847.85 588.138C1848.25 588.984 1848.89 589.69 1849.7 590.166L1890.07 613.991C1890.88 614.469 1891.81 614.694 1892.74 614.637C1893.68 614.58 1894.58 614.244 1895.32 613.672L1929.67 587.17L1929.54 586.711C1928.08 581.036 1925.85 577.956 1923.16 576.369C1920.47 574.782 1916.69 574.318 1911.03 575.785C1909.82 576.095 1908.55 575.914 1907.48 575.282C1906.41 574.651 1905.63 573.62 1905.32 572.416C1904.06 567.491 1900.06 562.736 1894.9 559.691C1889.74 556.647 1883.64 555.453 1878.73 556.725C1878.14 556.88 1877.51 556.915 1876.9 556.829C1876.29 556.743 1875.71 556.537 1875.17 556.224C1874.64 555.911 1874.18 555.496 1873.81 555.003C1873.44 554.51 1873.17 553.949 1873.02 553.351C1871.57 547.686 1869.33 544.601 1866.64 543.014Z" fill="#F7F7F7"/>
<path d="M1782.03 41.1618C1771.78 45.3339 1766.02 51.6272 1764.03 57.5941C1763.04 60.5744 1762.98 63.5074 1763.99 65.9821C1764.65 67.6232 1765.85 69.021 1767.38 69.9388C1768.81 66.9497 1770.82 64.704 1773.46 63.6278C1775.74 62.7036 1778.39 63.3605 1781.02 64.1089C1782.78 61.1151 1785.46 58.7747 1788.66 57.443C1791.87 56.1371 1795.44 55.9755 1798.78 56.8815C1800.14 54.5056 1801.59 52.1823 1803.86 51.2582C1806.5 50.1802 1809.51 50.385 1812.62 51.5292C1813.07 49.7942 1812.96 47.9643 1812.29 46.3232C1811.28 43.8484 1809.19 41.7902 1806.4 40.3507C1800.8 37.4693 1792.28 36.9914 1782.03 41.1618ZM1775.23 67.9695C1773.79 68.5579 1772.46 69.9186 1771.32 72.6169L1771.22 72.8447L1786.28 88.4528C1786.61 88.7895 1787.02 89.0213 1787.48 89.1181C1787.94 89.215 1788.42 89.1725 1788.85 88.9961L1810.56 80.1606C1810.99 79.9847 1811.37 79.6824 1811.63 79.2929C1811.89 78.9033 1812.03 78.4445 1812.02 77.9757L1811.89 56.2819L1811.67 56.1953C1808.97 55.0574 1807.07 55.0114 1805.62 55.5998C1804.18 56.1883 1802.85 57.549 1801.71 60.2473C1801.47 60.8199 1801.01 61.2732 1800.44 61.5075C1799.86 61.7418 1799.22 61.7379 1798.65 61.4966C1796.3 60.5062 1793.2 60.6555 1790.43 61.7846C1787.65 62.9138 1785.33 64.9778 1784.35 67.3157C1784.23 67.5999 1784.05 67.8578 1783.84 68.0746C1783.62 68.2913 1783.36 68.4628 1783.07 68.579C1782.79 68.6952 1782.48 68.7539 1782.17 68.7518C1781.86 68.7497 1781.56 68.6868 1781.27 68.5668C1778.58 67.4253 1776.68 67.381 1775.23 67.9695Z" fill="#F7F7F7"/>
<path d="M53.8707 369.583C38.0624 354.09 21.9298 348.518 9.39793 349.612C3.1386 350.159 -2.28836 352.388 -6.0287 356.205C-8.50914 358.736 -10.1266 362.034 -10.5881 365.585C-3.96947 365.823 1.75106 367.728 5.82867 371.724C9.33046 375.156 10.2333 380.543 10.9577 385.979C17.845 386.813 24.2721 389.872 29.2632 394.691C34.2112 399.54 37.3454 405.959 38.3426 412.817C43.7849 413.426 49.1959 414.226 52.6977 417.658C56.782 421.661 58.7949 427.335 59.1665 433.948C62.7144 433.408 65.9792 431.738 68.4596 429.207C72.2 425.39 74.3126 419.913 74.7334 413.644C75.5748 401.093 69.6723 385.069 53.8707 369.583ZM-0.733327 378.42C-2.96296 376.235 -6.51675 374.878 -12.3699 374.944L-12.8671 374.942L-29.5345 414.986C-29.894 415.851 -29.9865 416.803 -29.8 417.72C-29.6135 418.638 -29.1567 419.478 -28.4882 420.134L4.98966 452.944C5.65822 453.601 6.50862 454.043 7.43097 454.212C8.35331 454.381 9.30519 454.27 10.1636 453.892L49.8702 436.402L49.8521 435.924C49.7931 430.065 48.3654 426.539 46.1357 424.354C43.9061 422.169 40.3523 420.812 34.4992 420.878C33.2563 420.89 32.0593 420.408 31.1716 419.538C30.2839 418.668 29.7781 417.481 29.7654 416.238C29.7208 411.154 26.9797 405.58 22.7012 401.387C18.4227 397.194 12.7878 394.572 7.71683 394.63C7.1003 394.637 6.48845 394.522 5.91633 394.292C5.3442 394.062 4.82303 393.722 4.38268 393.29C3.94233 392.859 3.59145 392.345 3.35013 391.777C3.10881 391.21 2.98179 390.6 2.97636 389.984C2.93071 384.137 1.4963 380.605 -0.733327 378.42Z" fill="#F7F7F7"/>
<path d="M524.4 -26.7243C510.604 -21.4869 502.723 -13.2802 499.882 -5.38947C498.463 -1.44816 498.296 2.45954 499.56 5.79009C500.399 7.99878 501.943 9.89955 503.963 11.1715C505.957 7.23222 508.709 4.30229 512.267 2.95134C515.323 1.79116 518.836 2.75052 522.329 3.83139C524.759 -0.103884 528.407 -3.13883 532.718 -4.81274C537.036 -6.45207 541.797 -6.55483 546.227 -5.24149C548.116 -8.36542 550.113 -11.4166 553.169 -12.5768C556.733 -13.93 560.73 -13.5622 564.836 -11.9388C565.501 -14.237 565.403 -16.6799 564.564 -18.8886C563.3 -22.2191 560.575 -25.0288 556.899 -27.0357C549.537 -31.0532 538.189 -31.9595 524.4 -26.7243ZM514.486 8.79442C512.54 9.53312 510.726 11.3049 509.129 14.8658L508.99 15.1663L528.567 36.4469C528.99 36.906 529.54 37.2282 530.148 37.3717C530.755 37.5153 531.391 37.4737 531.975 37.2523L561.19 26.1608C561.775 25.9399 562.28 25.5487 562.641 25.0378C563.001 24.5268 563.199 23.9196 563.211 23.2945L563.723 -5.62648L563.429 -5.74891C559.866 -7.35106 557.333 -7.47243 555.387 -6.73373C553.442 -5.99504 551.627 -4.22325 550.031 -0.66233C549.691 0.0933717 549.065 0.68312 548.29 0.977228C547.516 1.27134 546.656 1.24572 545.9 0.906013C542.81 -0.488119 538.67 -0.387154 534.937 1.03034C531.203 2.44784 528.041 5.12561 526.659 8.2109C526.491 8.586 526.25 8.92426 525.951 9.20629C525.652 9.48833 525.3 9.7086 524.916 9.85449C524.532 10.0004 524.123 10.069 523.712 10.0565C523.301 10.044 522.896 9.95051 522.522 9.78146C518.97 8.17488 516.432 8.05572 514.486 8.79442Z" fill="#F7F7F7"/>
</g>
<defs>
<radialGradient id="paint0_radial_170_24" cx="0" cy="0" r="1" gradientUnits="userSpaceOnUse" gradientTransform="translate(960 980) rotate(-90) scale(980 1920)">
<stop stop-color="#FBDC9D"/>
<stop offset="1" stop-color="#F8C867"/>
</radialGradient>
<clipPath id="clip0_170_24">
<rect width="1920" height="980" fill="white"/>
</clipPath>
</defs>
</svg>
