<svg width="128" height="102" viewBox="0 0 128 102" fill="none" xmlns="http://www.w3.org/2000/svg">
<path d="M88 73.06V16C88 12.8174 86.7357 9.76515 84.4853 7.51472C82.2348 5.26428 79.1826 4 76 4H16C12.8174 4 9.76515 5.26428 7.51472 7.51472C5.26428 9.76515 4 12.8174 4 16V70C4 71.5913 4.63214 73.1174 5.75736 74.2426C6.88258 75.3679 8.4087 76 10 76H14.26C15.4296 73.3295 17.352 71.0577 19.7922 69.4625C22.2324 67.8672 25.0846 67.0177 28 67.0177C30.9154 67.0177 33.7676 67.8672 36.2078 69.4625C38.648 71.0577 40.5704 73.3295 41.74 76H86.26C86.7 74.94 87.28 73.96 88 73.06ZM88 73.06C89.5593 70.9449 91.6488 69.2786 94.0578 68.229C96.4668 67.1794 99.11 66.7837 101.721 67.0819C104.331 67.3801 106.817 68.3616 108.928 69.9274C111.038 71.4932 112.698 73.5878 113.74 76H124V58.66C124.002 54.3061 122.82 50.0335 120.58 46.3L113.2 34L107.74 24.94C107.209 24.0443 106.454 23.3023 105.549 22.7868C104.645 22.2713 103.621 22.0002 102.58 22H88V73.06Z" stroke="#00064D" stroke-width="8" stroke-linecap="round" stroke-linejoin="round"/>
<path d="M58 46H28M58 28H28M43 82C43.0026 84.2314 42.5074 86.4353 41.5503 88.4511C40.5933 90.4668 39.1985 92.2437 37.4678 93.6521C35.737 95.0606 33.7138 96.0651 31.5456 96.5926C29.3774 97.12 27.1189 97.1571 24.9346 96.7011C22.7502 96.2451 20.6952 95.3074 18.9191 93.9566C17.1431 92.6057 15.6908 90.8756 14.6681 88.8923C13.6454 86.909 13.0781 84.7225 13.0075 82.4922C12.9369 80.2619 13.3648 78.044 14.26 76C15.6412 72.8463 18.0653 70.2637 21.1254 68.6858C24.1854 67.1078 27.6952 66.6306 31.0654 67.3342C34.4357 68.0378 37.4614 69.8794 39.6345 72.5499C41.8076 75.2203 42.9959 78.5571 43 82ZM115 82C115.003 84.2314 114.507 86.4353 113.55 88.4511C112.593 90.4668 111.199 92.2437 109.468 93.6521C107.737 95.0606 105.714 96.0651 103.546 96.5926C101.377 97.12 99.1189 97.1571 96.9346 96.7011C94.7502 96.2451 92.6952 95.3074 90.9191 93.9566C89.1431 92.6057 87.6908 90.8756 86.6681 88.8923C85.6454 86.909 85.0781 84.7225 85.0075 82.4922C84.9369 80.2619 85.3648 78.044 86.26 76C86.7 74.94 87.28 73.96 88 73.06C89.5593 70.9449 91.6488 69.2786 94.0578 68.229C96.4668 67.1794 99.11 66.7837 101.721 67.0819C104.331 67.3801 106.817 68.3616 108.928 69.9274C111.038 71.4932 112.698 73.5878 113.74 76C114.58 77.89 115.012 79.936 115 82Z" stroke="#00064D" stroke-width="8" stroke-linecap="round" stroke-linejoin="round"/>
</svg>
